<?xml version="1.0" encoding="utf-8"?>
<svg width="64px" height="64px" viewBox="0 0 64 64" version="1.1" xmlns:xlink="http://www.w3.org/1999/xlink" xmlns="http://www.w3.org/2000/svg">
  <defs>
    <path d="M64 0L64 0L64 64L0 64L0 0L64 0Z" id="path_1" />
    <path d="M49 7C53.4189 7 57 10.5811 57 15L57 49C57 53.4189 53.4189 57 49 57L15 57C10.5811 57 7 53.4189 7 49L7 15C7 10.5811 10.5811 7 15 7L49 7Z" id="path_2" />
    <clipPath id="clip_1">
      <use xlink:href="#path_1" clip-rule="evenodd" fill-rule="evenodd" />
    </clipPath>
    <clipPath id="clip_2">
      <use xlink:href="#path_2" />
    </clipPath>
  </defs>
  <g id="Frame" clip-path="url(#clip_1)">
    <path d="M64 0L64 0L64 64L0 64L0 0L64 0Z" id="Frame" fill="#052400" fill-opacity="0" stroke="none" />
    <path d="M19 32C19 24.8203 24.8203 19 32 19C39.1797 19 45 24.8203 45 32C45 39.1797 39.1797 45 32 45C24.8203 45 19 39.1797 19 32Z" id="Oval" fill="#CC00FF" fill-rule="evenodd" stroke="none" />
    <g id="Rectangle">
      <g clip-path="url(#clip_2)">
        <use xlink:href="#path_2" fill="none" stroke="#CC00FF" stroke-width="6" />
      </g>
    </g>
  </g>
</svg>