<?xml version="1.0" encoding="utf-8"?>
<svg width="16px" height="16px" viewBox="0 0 16 16" version="1.1" xmlns:xlink="http://www.w3.org/1999/xlink" xmlns="http://www.w3.org/2000/svg">
  <defs>
    <path d="M16 0L16 0L16 16L0 16L0 0L16 0Z" id="path_1" />
    <path d="M11.5355 7.28553C11.9261 7.67611 11.9261 8.30917 11.5355 8.69975L8.70711 11.5282C8.31653 11.9188 7.68347 11.9188 7.29289 11.5282L4.46447 8.69975C4.07389 8.30917 4.07389 7.67611 4.46447 7.28553L7.29289 4.45711C7.68347 4.06653 8.31653 4.06653 8.70711 4.45711L11.5355 7.28553Z" id="path_2" />
    <path d="M12.25 1.75C13.3547 1.75 14.25 2.64528 14.25 3.75L14.25 12.25C14.25 13.3547 13.3547 14.25 12.25 14.25L3.75 14.25C2.64528 14.25 1.75 13.3547 1.75 12.25L1.75 3.75C1.75 2.64528 2.64528 1.75 3.75 1.75L12.25 1.75Z" id="path_3" />
    <clipPath id="clip_1">
      <use xlink:href="#path_1" clip-rule="evenodd" fill-rule="evenodd" />
    </clipPath>
    <clipPath id="clip_2">
      <use xlink:href="#path_2" />
    </clipPath>
    <clipPath id="clip_3">
      <use xlink:href="#path_3" />
    </clipPath>
  </defs>
  <g id="Frame" clip-path="url(#clip_1)">
    <path d="M16 0L16 0L16 16L0 16L0 0L16 0Z" id="Frame" fill="#052400" fill-opacity="0" stroke="none" />
    <g id="Rectangle-2">
      <g clip-path="url(#clip_2)">
        <use xlink:href="#path_2" fill="none" stroke="#CC00FF" stroke-width="2" />
      </g>
    </g>
    <g id="Rectangle">
      <g clip-path="url(#clip_3)">
        <use xlink:href="#path_3" fill="none" stroke="#CC00FF" stroke-width="2" />
      </g>
    </g>
  </g>
</svg>