<?xml version="1.0" encoding="utf-8"?>
<svg width="64px" height="64px" viewBox="0 0 64 64" version="1.1" xmlns:xlink="http://www.w3.org/1999/xlink" xmlns="http://www.w3.org/2000/svg">
  <defs>
    <path d="M64 0L64 0L64 64L0 64L0 0L64 0Z" id="path_1" />
    <path d="M51.799 29.1716C53.3613 30.7339 53.3613 33.2661 51.799 34.8284L34.8284 51.799C33.2661 53.3613 30.7339 53.3613 29.1716 51.799L12.201 34.8284C10.6387 33.2661 10.6387 30.7339 12.201 29.1716L29.1716 12.201C30.7339 10.6387 33.2661 10.6387 34.8284 12.201L51.799 29.1716Z" id="path_2" />
    <clipPath id="clip_1">
      <use xlink:href="#path_1" clip-rule="evenodd" fill-rule="evenodd" />
    </clipPath>
    <clipPath id="clip_2">
      <use xlink:href="#path_2" />
    </clipPath>
  </defs>
  <g id="Frame" clip-path="url(#clip_1)">
    <path d="M64 0L64 0L64 64L0 64L0 0L64 0Z" id="Frame" fill="#052400" fill-opacity="0" stroke="none" />
    <g id="Rectangle-2">
      <g clip-path="url(#clip_2)">
        <use xlink:href="#path_2" fill="none" stroke="#CC00FF" stroke-width="4" />
      </g>
    </g>
  </g>
</svg>