<?xml version="1.0" encoding="utf-8"?>
<svg width="16px" height="16px" viewBox="0 0 16 16" version="1.1" xmlns:xlink="http://www.w3.org/1999/xlink" xmlns="http://www.w3.org/2000/svg">
  <defs>
    <path d="M16 0L16 0L16 16L0 16L0 0L16 0Z" id="path_1" />
    <path d="M12.25 1.75C13.3547 1.75 14.25 2.64528 14.25 3.75L14.25 12.25C14.25 13.3547 13.3547 14.25 12.25 14.25L3.75 14.25C2.64528 14.25 1.75 13.3547 1.75 12.25L1.75 3.75C1.75 2.64528 2.64528 1.75 3.75 1.75L12.25 1.75Z" id="path_2" />
    <clipPath id="clip_1">
      <use xlink:href="#path_1" clip-rule="evenodd" fill-rule="evenodd" />
    </clipPath>
    <clipPath id="clip_2">
      <use xlink:href="#path_2" />
    </clipPath>
  </defs>
  <g id="Frame" clip-path="url(#clip_1)">
    <path d="M16 0L16 0L16 16L0 16L0 0L16 0Z" id="Frame" fill="#052400" fill-opacity="0" stroke="none" />
    <path d="M4.75 8C4.75 6.20507 6.20507 4.75 8 4.75C9.79493 4.75 11.25 6.20507 11.25 8C11.25 9.79493 9.79493 11.25 8 11.25C6.20507 11.25 4.75 9.79493 4.75 8Z" id="Oval" fill="#CC00FF" fill-rule="evenodd" stroke="none" />
    <g id="Rectangle">
      <g clip-path="url(#clip_2)">
        <use xlink:href="#path_2" fill="none" stroke="#CC00FF" stroke-width="2" />
      </g>
    </g>
  </g>
</svg>