<?xml version="1.0" encoding="utf-8"?>
<svg width="16px" height="16px" viewBox="0 0 16 16" version="1.1" xmlns:xlink="http://www.w3.org/1999/xlink" xmlns="http://www.w3.org/2000/svg">
  <defs>
    <path d="M16 0L16 0L16 16L0 16L0 0L16 0Z" id="path_1" />
    <path d="M3.74844 1.78066L4.00798 1.78058Q4.10596 1.78056 4.20348 1.79011Q4.301 1.79966 4.39712 1.81871Q4.49324 1.83776 4.58703 1.86611Q4.68082 1.89447 4.77139 1.93186Q4.86197 1.96925 4.94845 2.01532Q5.03493 2.06139 5.11649 2.1157Q5.19805 2.17 5.2739 2.23203Q5.34976 2.29405 5.41919 2.36319Q5.48862 2.43234 5.55095 2.50794Q5.61329 2.58354 5.66793 2.66488Q5.72257 2.74622 5.76899 2.83251Q5.81541 2.9188 5.85318 3.00922Q5.89094 3.09963 5.91968 3.19331Q5.94842 3.28699 5.96785 3.38303Q5.98729 3.47906 5.99725 3.57654Q6.0072 3.67402 6.00757 3.77201L6.02368 8.00858Q6.02405 8.10654 6.034 8.204Q6.04395 8.30146 6.06338 8.39748Q6.08282 8.49351 6.11154 8.58717Q6.14027 8.68083 6.17802 8.77123Q6.21577 8.86163 6.26218 8.94791Q6.30858 9.03419 6.3632 9.11552Q6.41783 9.19685 6.48014 9.27244Q6.54245 9.34804 6.61185 9.41718Q6.68126 9.48633 6.75709 9.54835Q6.83293 9.61037 6.91446 9.66469Q6.996 9.719 7.08245 9.76508Q7.1689 9.81115 7.25945 9.84856Q7.35 9.88596 7.44377 9.91433Q7.53753 9.94271 7.63363 9.96177Q7.72972 9.98084 7.82722 9.99042Q7.92472 10 8.02269 10L12.251 10Q12.3492 10 12.4469 10.0096Q12.5447 10.0193 12.641 10.0384Q12.7373 10.0576 12.8313 10.0861Q12.9253 10.1146 13.016 10.1522Q13.1067 10.1897 13.1933 10.236Q13.2799 10.2823 13.3616 10.3369Q13.4432 10.3915 13.5192 10.4538Q13.5951 10.5161 13.6645 10.5855Q13.7339 10.6549 13.7963 10.7309Q13.8586 10.8068 13.9131 10.8884Q13.9677 10.9701 14.014 11.0567Q14.0603 11.1433 14.0978 11.234Q14.1354 11.3248 14.1639 11.4187Q14.1924 11.5127 14.2116 11.609Q14.2308 11.7053 14.2404 11.8031Q14.25 11.9008 14.25 11.999L14.25 12.1985Q14.25 12.2963 14.2404 12.3938Q14.2309 12.4912 14.2118 12.5872Q14.1928 12.6832 14.1645 12.7769Q14.1362 12.8706 14.0988 12.9611Q14.0615 13.0516 14.0154 13.138Q13.9694 13.2244 13.9152 13.3059Q13.861 13.3874 13.799 13.4632Q13.7371 13.539 13.668 13.6084Q13.599 13.6778 13.5235 13.7402Q13.448 13.8025 13.3668 13.8571Q13.2856 13.9117 13.1994 13.9582Q13.1132 14.0046 13.0229 14.0424Q12.9326 14.0802 12.839 14.109Q12.7455 14.1378 12.6496 14.1573Q12.5536 14.1769 12.4563 14.1869Q12.3589 14.197 12.261 14.1975L3.75902 14.24Q3.6605 14.2405 3.56241 14.2313Q3.46433 14.2221 3.36762 14.2033Q3.27091 14.1845 3.17651 14.1563Q3.08212 14.128 2.99096 14.0907Q2.8998 14.0533 2.81276 14.0072Q2.72571 13.961 2.64363 13.9066Q2.56154 13.8521 2.48521 13.7898Q2.40888 13.7275 2.33904 13.658Q2.2692 13.5885 2.20654 13.5125Q2.14387 13.4365 2.08898 13.3547Q2.03409 13.2729 1.98752 13.1861Q1.94094 13.0992 1.90312 13.0083Q1.86531 12.9173 1.83662 12.8231Q1.80794 12.7288 1.78865 12.6322Q1.76937 12.5356 1.75969 12.4375Q1.75 12.3395 1.75 12.241L1.75 3.77968Q1.75 3.6815 1.75962 3.58378Q1.76924 3.48607 1.7884 3.38977Q1.80755 3.29346 1.83605 3.1995Q1.86454 3.10554 1.90211 3.01483Q1.93968 2.92411 1.98596 2.83751Q2.03223 2.75092 2.08677 2.66927Q2.14131 2.58762 2.20359 2.51172Q2.26587 2.43581 2.33529 2.36637Q2.40471 2.29693 2.4806 2.23463Q2.55649 2.17233 2.63812 2.11776Q2.71975 2.0632 2.80633 2.01689Q2.89292 1.97059 2.98362 1.933Q3.07433 1.8954 3.16828 1.86688Q3.26223 1.83835 3.35853 1.81917Q3.45482 1.79999 3.55254 1.79034Q3.65025 1.78069 3.74844 1.78066Z" id="path_2" />
    <clipPath id="clip_1">
      <use xlink:href="#path_1" clip-rule="evenodd" fill-rule="evenodd" />
    </clipPath>
    <clipPath id="clip_2">
      <use xlink:href="#path_2" />
    </clipPath>
  </defs>
  <g id="Frame" clip-path="url(#clip_1)">
    <path d="M16 0L16 0L16 16L0 16L0 0L16 0Z" id="Frame" fill="#052400" fill-opacity="0" stroke="none" />
    <path d="M13 2C13.5524 2 14 2.44764 14 3L14 7C14 7.55236 13.5524 8 13 8L9 8C8.44764 8 8 7.55236 8 7L8 3C8 2.44764 8.44764 2 9 2L13 2Z" id="Rectangle-3" fill="#CC00FF" stroke="none" />
    <g id="Rectangle-Copy">
      <g clip-path="url(#clip_2)">
        <use xlink:href="#path_2" fill="none" stroke="#CC00FF" stroke-width="2" />
      </g>
    </g>
  </g>
</svg>